<svg xmlns="http://www.w3.org/2000/svg" width="320" height="240" viewBox="0 0 320 240" role="img" aria-labelledby="title desc" shape-rendering="crispEdges">
  <title id="title">Claude state — completed</title>
  <desc id="desc">Claude has completed the task. The screen includes the conversation title, quotas, context usage, and battery.</desc>
  <defs><style>.ui{font-family:Silkscreen,Monaco,monospace}.meta{font-size:11px;letter-spacing:.4px}.title{font-size:14px;font-weight:700}.state{font-size:36px;font-weight:700;letter-spacing:2px}.value{font-size:12px;font-weight:700}</style></defs>
  <rect width="320" height="240" fill="#000000"/>
  <text x="16" y="23" class="ui meta" fill="#7C8782">CLAUDE</text><text x="304" y="23" class="ui meta" text-anchor="end" fill="#F2F5F3">BAT 78%</text>
  <path d="M16 34h288" stroke="#173128"/><text x="16" y="57" class="ui title" fill="#F2F5F3">BUILD MAC CLIENT</text>
  <rect x="16" y="77" width="8" height="48" fill="#A7F3D0"/><text x="40" y="117" class="ui state" fill="#A7F3D0">DONE</text><text x="218" y="116" class="ui meta" fill="#A7F3D0">100%</text>
  <path d="M16 144h288" stroke="#173128"/>
  <g class="ui"><text x="16" y="168" class="value" fill="#F2F5F3">5H 46%</text><rect x="16" y="178" width="86" height="6" fill="#173128"/><rect x="16" y="178" width="40" height="6" fill="#A7F3D0"/><text x="117" y="168" class="value" fill="#F2F5F3">WK 36%</text><rect x="117" y="178" width="86" height="6" fill="#173128"/><rect x="117" y="178" width="31" height="6" fill="#A7F3D0"/><text x="218" y="168" class="value" fill="#F2F5F3">CTX 72%</text><rect x="218" y="178" width="86" height="6" fill="#173128"/><rect x="218" y="178" width="62" height="6" fill="#A7F3D0"/></g>
  <rect x="16" y="211" width="7" height="7" fill="#A7F3D0"/><text x="34" y="219" class="ui meta" fill="#A7F3D0">FINISHED</text><text x="304" y="219" class="ui meta" text-anchor="end" fill="#7C8782">12M</text>
</svg>
